<svg id="Ebene_1" data-name="Ebene 1" xmlns="http://www.w3.org/2000/svg" viewBox="0 0 339.96 108.24"><defs><style>.cls-1{fill:#ea0016;fill-rule:evenodd;}.cls-2{fill:#ffffff;}.cls-3{fill:#ffffff;}</style></defs><title>Bosch Global</title><path class="cls-1" d="M145.37,36.67a10.82,10.82,0,0,0,6.87-10.24c0-9.21-6.51-13.71-15.49-13.71H113.36v49.9h25.5c7.82,0,15.57-5.53,15.57-13.93C154.44,38.81,145.37,36.75,145.37,36.67ZM125.64,23.11h9.14a4.49,4.49,0,0,1,4.75,4.72,4.68,4.68,0,0,1-5,4.57h-8.92Zm9.14,29.11h-9.14v-9.8h8.92c4.46,0,6.58,2,6.58,4.86C141.13,50.9,138.5,52.22,134.78,52.22Z"/><path class="cls-1" d="M181.43,11.47C167,11.47,158.48,23,158.48,37.63S167,63.8,181.43,63.8s22.95-11.5,22.95-26.16S196,11.47,181.43,11.47Zm0,40.39c-7.09,0-10.6-6.34-10.6-14.22s3.51-14.15,10.6-14.15,10.67,6.34,10.67,14.15S188.52,51.85,181.43,51.85Z"/><path class="cls-1" d="M231,32.33,229.25,32c-4.25-.89-7.6-2-7.6-5,0-3.32,3.22-4.64,6.06-4.64A14.26,14.26,0,0,1,238,26.94l7.75-7.67c-3.51-4-9.28-7.81-18.2-7.81C217,11.47,209,17.36,209,27.17c0,8.92,6.46,13.38,14.32,15l1.75.37c6.53,1.37,8.92,2.36,8.92,5.53C234,51,231.3,53,227.28,53a15.69,15.69,0,0,1-12.64-6.41l-8,7.81c4.38,5.23,9.94,9.36,20.75,9.36,9.36,0,19.29-5.31,19.29-16.29C246.72,36,238.12,33.82,231,32.33Z"/><path class="cls-1" d="M274.52,51.85c-5.48,0-11.25-4.55-11.25-14.52,0-8.89,5.34-13.86,10.89-13.86,4.39,0,7,2.06,9.06,5.6l10.09-6.71c-5-7.59-11-10.83-19.22-10.83-15.06,0-23.24,11.72-23.24,25.8,0,14.81,9.06,26.46,23.1,26.46,9.86,0,14.61-3.46,19.73-10.83l-10.16-6.85C281.46,49.5,279.27,51.85,274.52,51.85Z"/><polygon class="cls-1" points="326.8 12.72 326.8 31.07 311.67 31.07 311.67 12.72 298.59 12.72 298.59 62.62 311.67 62.62 311.67 42.94 326.8 42.94 326.8 62.62 339.96 62.62 339.96 12.72 326.8 12.72"/><path class="cls-2" d="M37.83,0A37.83,37.83,0,1,0,75.66,37.83,37.83,37.83,0,0,0,37.83,0Zm0,72.12A34.29,34.29,0,1,1,72.12,37.83,34.32,34.32,0,0,1,37.83,72.12Z"/><path class="cls-2" d="M53.49,14.22H50.86v13h-26v-13H22.17a28.28,28.28,0,0,0,0,47.22h2.68v-13h26v13h2.62a28.27,28.27,0,0,0,0-47.22ZM21.31,56.34a24.78,24.78,0,0,1,0-37ZM50.86,44.92h-26V30.74h26Zm3.55,11.37V48.47h0V27.2h0V19.38a24.77,24.77,0,0,1,0,36.91Z"/><path class="cls-3" d="M113.36,85.29H116V108h-2.63Z"/><path class="cls-3" d="M121.86,91.37h2.63v2.54a5.32,5.32,0,0,1,5-2.82c3.14,0,5.52,1.78,5.52,6.59V108h-2.63V97.49c0-2.92-1.11-4.12-3.58-4.12a4.14,4.14,0,0,0-4.31,4.44V108h-2.63Z"/><path class="cls-3" d="M138.31,91.37h2.85l4.44,13.91,4.34-13.91h2.73L147.09,108H144Z"/><path class="cls-3" d="M155.07,99.71c0-5.07,3.07-8.62,7.51-8.62,3.74,0,7.13,2.31,7.13,8.24v.86H157.8c.13,3.77,1.81,5.86,5.13,5.86a4.63,4.63,0,0,0,4.41-2.79l2.12,1.2a7,7,0,0,1-6.56,3.77C158.31,108.24,155.07,104.84,155.07,99.71Zm2.82-1.65H167c-.25-3.42-1.77-4.79-4.44-4.79S158.34,95.11,157.89,98.06Z"/><path class="cls-3" d="M174.18,91.37h2.63v2.54a5.32,5.32,0,0,1,5-2.82c3.14,0,5.51,1.78,5.51,6.59V108h-2.63V97.49c0-2.92-1.11-4.12-3.58-4.12a4.14,4.14,0,0,0-4.31,4.44V108h-2.63Z"/><path class="cls-3" d="M191.2,91.37h2.54V87.06l2.63-.63v4.94h4.18v2.22h-4.18v10.08c0,1.55.57,2.34,1.87,2.34a3.54,3.54,0,0,0,2.28-.76l1,1.81a5.12,5.12,0,0,1-3.42,1.17c-2.82,0-4.37-1.68-4.37-4.06V93.59H191.2Z"/><path class="cls-3" d="M203.85,99.71c0-5.07,3.07-8.62,7.51-8.62,3.74,0,7.13,2.31,7.13,8.24v.86H206.58c.13,3.77,1.81,5.86,5.13,5.86a4.63,4.63,0,0,0,4.4-2.79l2.12,1.2a7,7,0,0,1-6.56,3.77C207.08,108.24,203.85,104.84,203.85,99.71Zm2.82-1.65h9.13c-.25-3.42-1.78-4.79-4.44-4.79S207.12,95.11,206.67,98.06Z"/><path class="cls-3" d="M222.2,99.55c0-5.39,3-8.46,7.13-8.46a6.35,6.35,0,0,1,5.45,3v-10h2.63V108h-2.63v-2.66a6.23,6.23,0,0,1-5.45,2.95C225,108.24,222.2,104.84,222.2,99.55Zm12.68.13c0-4.44-2.31-6.4-5.17-6.4s-4.79,2.06-4.79,6.4c0,4.18,1.52,6.37,4.75,6.37C232.69,106,234.88,104.12,234.88,99.68Z"/><path class="cls-3" d="M249,91.37h2.38V89.06c0-3.36,1.78-5.32,4.91-5.32a5.81,5.81,0,0,1,3,.76l-.67,2a4.44,4.44,0,0,0-2.22-.6c-1.55,0-2.38,1.17-2.38,2.85v2.6h3.8v2.22H254V108h-2.63V93.59H249Z"/><path class="cls-3" d="M260.11,99.68c0-5.07,3.36-8.59,7.83-8.59s7.83,3.49,7.83,8.56-3.36,8.59-7.86,8.59S260.11,104.62,260.11,99.68Zm12.93,0c0-3.9-2-6.4-5.1-6.4s-5.1,2.5-5.1,6.4,1.9,6.37,5.1,6.37S273,103.51,273,99.68Z"/><path class="cls-3" d="M280.27,91.37h2.63V94a4.9,4.9,0,0,1,4.34-2.95,5.42,5.42,0,0,1,2.79.67L289,94a3.56,3.56,0,0,0-2-.51c-1.77,0-4,1.3-4,5.39V108h-2.63Z"/><path class="cls-3" d="M299.1,84.08h2.66V108H299.1Z"/><path class="cls-3" d="M307.28,85.54A1.74,1.74,0,1,1,309,87.29,1.76,1.76,0,0,1,307.28,85.54Zm.48,5.83h2.63V108h-2.63Z"/><path class="cls-3" d="M314.57,91.37h2.38V89.06c0-3.36,1.78-5.32,4.91-5.32a5.81,5.81,0,0,1,3,.76l-.67,2a4.44,4.44,0,0,0-2.22-.6c-1.55,0-2.38,1.17-2.38,2.85v2.6h3.8v2.22h-3.8V108h-2.63V93.59h-2.38Z"/><path class="cls-3" d="M325.31,99.71c0-5.07,3.07-8.62,7.51-8.62,3.74,0,7.13,2.31,7.13,8.24v.86H328c.13,3.77,1.81,5.86,5.13,5.86a4.63,4.63,0,0,0,4.41-2.79l2.12,1.2a7,7,0,0,1-6.56,3.77C328.55,108.24,325.31,104.84,325.31,99.71Zm2.82-1.65h9.13c-.25-3.42-1.77-4.79-4.44-4.79S328.58,95.11,328.13,98.06Z"/></svg>